<?xml version="1.0" standalone="no"?>
<!DOCTYPE svg PUBLIC "-//W3C//DTD SVG 20010904//EN"
 "http://www.w3.org/TR/2001/REC-SVG-20010904/DTD/svg10.dtd">
<svg version="1.0" xmlns="http://www.w3.org/2000/svg"
 width="750.000000pt" height="750.000000pt" viewBox="0 0 750.000000 750.000000"
 preserveAspectRatio="xMidYMid meet">

<g transform="translate(0.000000,750.000000) scale(0.100000,-0.100000)"
fill="#000000" stroke="none">
<path d="M0 3750 l0 -3750 3750 0 3750 0 0 3750 0 3750 -3750 0 -3750 0 0
-3750z m1910 1085 l0 -365 -100 0 -100 0 0 -235 0 -235 360 0 360 0 0 235 0
235 -100 0 -100 0 0 365 0 365 800 0 800 0 0 -365 0 -365 -115 0 -115 0 0
-800 0 -800 115 0 115 0 0 -365 0 -365 -800 0 -800 0 0 365 0 365 100 0 100 0
0 250 0 250 -360 0 -360 0 0 -250 0 -250 100 0 100 0 0 -365 0 -365 -800 0
-800 0 0 365 0 365 115 0 115 0 0 800 0 800 -120 0 -120 0 0 365 0 365 805 0
805 0 0 -365z m5370 -280 l0 -645 -285 0 -285 0 0 280 0 280 -180 0 -180 0 2
-797 3 -798 138 -3 137 -3 0 -364 0 -365 -855 0 -855 0 0 365 0 365 130 0 130
0 0 800 0 800 -180 0 -180 0 0 -280 0 -280 -280 0 -280 0 0 645 0 645 1510 0
1510 0 0 -645z"/>
</g>
</svg>
