<?xml version="1.0" standalone="no"?>
<!DOCTYPE svg PUBLIC "-//W3C//DTD SVG 20010904//EN"
 "http://www.w3.org/TR/2001/REC-SVG-20010904/DTD/svg10.dtd">
<svg version="1.0" xmlns="http://www.w3.org/2000/svg"
 width="750.000000pt" height="750.000000pt" viewBox="0 0 750.000000 750.000000"
 preserveAspectRatio="xMidYMid meet">

<g transform="translate(0.000000,750.000000) scale(0.100000,-0.100000)"
fill="#000000" stroke="none">
<path d="M300 4835 l0 -365 115 0 115 0 0 -800 0 -800 -115 0 -115 0 0 -365 0
-365 805 0 805 0 0 365 0 365 -100 0 -100 0 0 250 0 250 355 0 355 0 0 -250 0
-250 -95 0 -95 0 0 -365 0 -365 800 0 800 0 0 365 0 365 -115 0 -115 0 2 798
3 797 113 3 112 3 0 364 0 365 -800 0 -800 0 0 -365 0 -365 95 0 95 0 0 -235
0 -235 -355 0 -355 0 2 233 3 232 98 3 97 3 0 364 0 365 -805 0 -805 0 0 -365z"/>
<path d="M4250 4555 l0 -645 285 0 285 0 0 280 0 280 180 0 180 0 0 -800 0
-800 -135 0 -135 0 0 -365 0 -365 860 0 860 0 0 365 0 365 -135 0 -135 0 0
800 0 800 175 0 175 0 0 -280 0 -280 285 0 285 0 0 645 0 645 -1515 0 -1515 0
0 -645z"/>
</g>
</svg>
